<svg xmlns="http://www.w3.org/2000/svg" xmlns:xlink="http://www.w3.org/1999/xlink" width="100%" viewBox="0 0 1440 809.999993" height="880" preserveAspectRatio="xMidYMid meet" version="1.0"><defs><clipPath id="4fb052b96d"><path d="M 0 0 L 1439.867188 0 L 1439.867188 810 L 0 810 Z M 0 0 " clip-rule="nonzero"/></clipPath><clipPath id="6ab5aa7ebc"><path d="M 538 0 L 1439.867188 0 L 1439.867188 567 L 538 567 Z M 538 0 " clip-rule="nonzero"/></clipPath><clipPath id="fd7495ea96"><path d="M 1296 368 L 1439.867188 368 L 1439.867188 500 L 1296 500 Z M 1296 368 " clip-rule="nonzero"/></clipPath><clipPath id="462cecfbce"><path d="M 0 0 L 1439.867188 0 L 1439.867188 810 L 0 810 Z M 0 0 " clip-rule="nonzero"/></clipPath><clipPath id="26961ed9ed"><path d="M 1019 0 L 1439.867188 0 L 1439.867188 350 L 1019 350 Z M 1019 0 " clip-rule="nonzero"/></clipPath></defs><rect x="-144" width="1728" fill="#ffffff" y="-80.999999" height="971.999992" fill-opacity="1"/><rect x="-144" width="1728" fill="#000000" y="-80.999999" height="971.999992" fill-opacity="1"/><g clip-path="url(#4fb052b96d)"><path fill="#100f14" d="M -21.132812 977.019531 L -21.132812 -484.089844 L 1439.976562 -484.089844 L 1439.976562 977.019531 Z M -21.132812 977.019531 " fill-opacity="1" fill-rule="evenodd"/></g><g clip-path="url(#6ab5aa7ebc)"><path fill="#aa8108" d="M 1439.75 566.742188 L 1277.902344 404.894531 L 1277.902344 403.679688 L 1273.644531 250.957031 L 1016.878906 -5.808594 L 1016.878906 -7.023438 L 1012.621094 -159.746094 L 855.640625 -316.117188 L 703.527344 -320.375 L 701.703125 -320.984375 L 701.09375 -321.59375 L 538.03125 -484.046875 L 547.765625 -484.046875 L 704.746094 -327.070312 L 857.464844 -322.808594 L 858.683594 -322.808594 L 1019.3125 -162.179688 L 1019.3125 -160.960938 L 1023.570312 -8.242188 L 1279.121094 247.308594 L 1280.335938 247.914062 L 1280.335938 249.132812 L 1284.597656 401.851562 L 1439.75 557.007812 Z M 1439.75 566.742188 " fill-opacity="1" fill-rule="nonzero"/></g><path fill="#aa8108" d="M 1381.339844 84.851562 C 1381.339844 83.027344 1381.339844 80.59375 1382.558594 79.375 L 1232.269531 -70.910156 L 1231.054688 -72.128906 L 1231.054688 -73.34375 L 1226.792969 -226.066406 L 968.8125 -484.046875 L 978.546875 -484.046875 L 1232.269531 -229.71875 L 1233.488281 -229.109375 L 1233.488281 -227.890625 L 1237.746094 -75.171875 L 1387.425781 74.507812 C 1389.25 73.289062 1391.074219 72.683594 1392.902344 72.683594 C 1399.59375 72.683594 1405.070312 78.15625 1405.070312 84.851562 C 1405.070312 91.542969 1399.59375 97.019531 1392.902344 97.019531 C 1386.207031 97.019531 1381.339844 91.542969 1381.339844 84.851562 Z M 1381.339844 84.851562 " fill-opacity="1" fill-rule="nonzero"/><path fill="#aa8108" d="M 114.550781 246.699219 L 115.765625 247.308594 L 278.222656 410.371094 L 279.4375 410.980469 L 279.4375 412.195312 L 283.699219 559.441406 L 547.765625 824.726562 L 547.765625 976.835938 L 538.636719 976.835938 L 538.636719 828.984375 L 531.335938 821.683594 L 278.222656 568.566406 L 277.003906 567.960938 L 277.003906 566.742188 L 272.746094 414.023438 L 112.117188 253.390625 L 38.492188 253.390625 C 37.277344 257.652344 33.019531 261.300781 27.542969 261.300781 C 22.066406 261.300781 15.980469 255.824219 15.980469 249.742188 C 15.980469 243.65625 22.066406 238.179688 27.542969 238.179688 C 33.019531 238.179688 37.277344 241.832031 38.492188 246.699219 Z M 114.550781 246.699219 " fill-opacity="1" fill-rule="nonzero"/><path fill="#aa8108" d="M 389.570312 976.835938 L -21.132812 566.742188 L -21.132812 557.007812 L 389.570312 967.710938 L 542.898438 967.710938 L 542.898438 976.835938 Z M 389.570312 976.835938 " fill-opacity="1" fill-rule="nonzero"/><g clip-path="url(#fd7495ea96)"><path fill="#aa8108" d="M 1439.75 499.203125 L 1439.75 480.34375 L 1408.71875 480.34375 L 1426.972656 499.203125 Z M 1439.75 461.480469 L 1439.75 443.835938 L 1439.144531 443.226562 L 1371.605469 443.226562 L 1389.859375 461.480469 Z M 1296.765625 368.386719 L 1364.304688 368.386719 L 1383.164062 387.25 L 1315.628906 387.25 Z M 1333.882812 405.503906 L 1402.027344 405.503906 L 1420.28125 424.367188 L 1352.742188 424.367188 Z M 1333.882812 405.503906 " fill-opacity="1" fill-rule="evenodd"/></g><path fill="#aa8108" d="M 1162.296875 976.835938 L 962.726562 777.265625 C 962.726562 781.523438 962.726562 785.785156 962.117188 790.042969 L 1149.519531 976.835938 Z M 1266.34375 976.835938 L 1253.566406 976.835938 L 958.46875 682.347656 C 957.859375 677.480469 957.25 672.003906 956.644531 667.136719 Z M 1240.179688 976.835938 L 1227.402344 976.835938 L 960.902344 710.335938 C 960.902344 706.078125 960.292969 701.210938 959.683594 696.34375 Z M 1214.625 976.835938 L 1201.238281 976.835938 L 962.117188 737.714844 C 962.117188 733.457031 962.117188 728.589844 961.511719 724.332031 Z M 1188.460938 976.835938 L 1175.683594 976.835938 L 962.726562 764.488281 C 962.726562 760.230469 962.726562 755.363281 962.726562 751.101562 Z M 1188.460938 976.835938 " fill-opacity="1" fill-rule="evenodd"/><path fill="#aa8108" d="M 474.75 482.777344 L 968.8125 976.835938 L 978.546875 976.835938 L 479.617188 477.910156 C 480.835938 476.082031 481.445312 476.082031 481.445312 470.609375 C 481.445312 465.738281 475.359375 456.613281 467.449219 456.613281 C 459.539062 456.613281 453.457031 463.304688 453.457031 470.609375 C 453.457031 478.515625 461.972656 484.601562 467.449219 484.601562 C 472.316406 484.601562 472.316406 483.992188 474.75 482.777344 Z M 474.75 482.777344 " fill-opacity="1" fill-rule="evenodd"/><path fill="#2d3039" d="M 895.796875 589.863281 L 1282.769531 976.835938 L 1332.664062 976.835938 L 872.070312 516.242188 C 881.195312 539.96875 889.105469 564.917969 895.796875 589.863281 Z M 1378.296875 976.835938 L 1423.324219 976.835938 L 725.433594 278.945312 C 767.414062 325.1875 803.921875 376.296875 833.128906 432.273438 Z M -21.132812 -327.070312 L 365.839844 59.90625 C 391.394531 66.597656 415.730469 75.117188 440.070312 84.242188 L -21.132812 -376.960938 Z M 524.035156 122.574219 C 579.40625 152.390625 630.515625 188.289062 676.757812 230.878906 L -21.132812 -467.621094 L -21.132812 -422.59375 Z M 524.035156 122.574219 " fill-opacity="1" fill-rule="evenodd"/><path fill="#aa8108" d="M 395.042969 927.550781 L 462.582031 927.550781 L 481.445312 946.414062 L 413.296875 946.414062 Z M -21.132812 443.835938 L -21.132812 461.480469 L -3.488281 461.480469 Z M -21.132812 480.34375 L -21.132812 499.203125 L 33.625 499.203125 L 15.371094 480.34375 Z M -15.050781 517.457031 L 52.488281 517.457031 L 71.351562 536.320312 L 3.203125 536.320312 Z M 22.066406 555.183594 L 89.601562 555.183594 L 108.464844 573.433594 L 40.925781 573.433594 Z M 59.179688 592.296875 L 127.328125 592.296875 L 145.582031 610.550781 L 78.042969 610.550781 Z M 96.296875 629.414062 L 164.441406 629.414062 L 183.304688 648.273438 L 115.15625 648.273438 Z M 134.019531 666.527344 L 201.558594 666.527344 L 220.417969 685.390625 L 152.273438 685.390625 Z M 171.136719 704.25 L 238.671875 704.25 L 257.535156 722.503906 L 189.996094 722.503906 Z M 208.25 741.367188 L 276.398438 741.367188 L 294.652344 759.621094 L 227.113281 759.621094 Z M 245.976562 778.484375 L 313.511719 778.484375 L 332.375 797.34375 L 264.226562 797.34375 Z M 283.089844 815.597656 L 350.628906 815.597656 L 369.488281 834.460938 L 301.34375 834.460938 Z M 320.207031 853.320312 L 387.742188 853.320312 L 406.605469 871.574219 L 339.066406 871.574219 Z M 357.320312 890.4375 L 425.46875 890.4375 L 443.71875 908.691406 L 376.183594 908.691406 Z M 357.320312 890.4375 " fill-opacity="1" fill-rule="evenodd"/><g clip-path="url(#462cecfbce)"><path fill="#2d3039" d="M 1277.902344 404.894531 L 388.351562 -484.046875 L 317.773438 -484.046875 L 1439.75 637.324219 L 1439.75 566.742188 Z M 295.257812 -484.046875 L 230.15625 -484.046875 L 1439.75 724.9375 L 1439.75 659.835938 Z M 218.59375 -484.046875 L -21.132812 -484.046875 L 1439.75 976.835938 L 1439.75 736.5 Z M 1208.539062 684.171875 L 1326.578125 684.171875 L 1358.828125 716.421875 L 1240.789062 716.421875 Z M 1273.644531 749.277344 L 1391.683594 749.277344 L 1423.929688 781.523438 L 1305.890625 781.523438 Z M 710.222656 68.421875 L 592.789062 68.421875 L 559.933594 35.566406 L 677.972656 35.566406 Z M 645.726562 3.320312 L 527.6875 3.320312 L 495.4375 -28.929688 L 612.871094 -28.929688 Z M 580.621094 -61.785156 L 462.582031 -61.785156 L 430.335938 -94.03125 L 548.375 -94.03125 Z M 516.125 -126.28125 L 398.085938 -126.28125 L 365.230469 -159.136719 L 483.269531 -159.136719 Z M 451.023438 -191.382812 L 332.984375 -191.382812 L 300.734375 -223.632812 L 418.773438 -223.632812 Z M 385.917969 -255.878906 L 268.488281 -255.878906 L 235.632812 -288.738281 L 353.671875 -288.738281 Z M 937.171875 295.375 L 970.027344 327.621094 L 851.988281 327.621094 L 819.742188 295.375 Z M 904.925781 262.519531 L 786.886719 262.519531 L 754.636719 230.269531 L 872.675781 230.269531 Z M 840.429688 198.023438 L 722.390625 198.023438 L 689.535156 165.167969 L 807.574219 165.167969 Z M 775.324219 132.917969 L 657.285156 132.917969 L 625.039062 100.671875 L 743.078125 100.671875 Z M 1067.378906 424.972656 L 1099.628906 457.222656 L 981.589844 457.222656 L 949.339844 424.972656 Z M 1034.523438 392.117188 L 916.484375 392.117188 L 884.238281 359.871094 L 1002.277344 359.871094 Z M 1164.125 522.324219 L 1046.691406 522.324219 L 1013.835938 489.46875 L 1131.875 489.46875 Z M 1196.980469 554.574219 L 1229.226562 586.820312 L 1111.1875 586.820312 L 1078.941406 554.574219 Z M 1144.046875 619.675781 L 1261.476562 619.675781 L 1294.332031 651.925781 L 1176.292969 651.925781 Z M 1144.046875 619.675781 " fill-opacity="1" fill-rule="evenodd"/></g><path fill="#2d3039" d="M 495.4375 -484.046875 L 1274.863281 294.765625 L 1273.644531 250.957031 L 1016.878906 -5.808594 L 1016.878906 -7.023438 L 1012.621094 -159.746094 L 855.640625 -316.117188 L 703.527344 -320.375 L 701.703125 -320.984375 L 701.09375 -321.59375 L 538.03125 -484.046875 Z M 495.4375 -484.046875 " fill-opacity="1" fill-rule="evenodd"/><path fill="#aa8108" d="M -21.132812 -109.851562 L 1065.554688 976.835938 L 1063.121094 976.835938 L -21.132812 -107.417969 Z M -21.132812 -109.851562 " fill-opacity="1" fill-rule="nonzero"/><path fill="#2d3039" d="M 219.203125 976.835938 L -21.132812 736.5 L -21.132812 976.835938 Z M 219.203125 976.835938 " fill-opacity="1" fill-rule="evenodd"/><path fill="#2d3039" d="M -21.132812 724.9375 L 230.761719 976.835938 L 295.867188 976.835938 L -21.132812 659.835938 Z M -21.132812 724.9375 " fill-opacity="1" fill-rule="evenodd"/><path fill="#2d3039" d="M -21.132812 637.324219 L 318.378906 976.835938 L 389.570312 976.835938 L -21.132812 566.742188 Z M -21.132812 637.324219 " fill-opacity="1" fill-rule="evenodd"/><g clip-path="url(#26961ed9ed)"><path fill="#aa8108" d="M 1020.53125 -72.128906 L 1439.75 347.09375 L 1439.75 349.527344 L 1019.3125 -70.910156 Z M 1020.53125 -72.128906 " fill-opacity="1" fill-rule="nonzero"/></g><path fill="#aa8108" d="M -21.132812 347.09375 L 542.898438 911.125 L 541.679688 912.339844 L -21.132812 349.527344 Z M -21.132812 347.09375 " fill-opacity="1" fill-rule="nonzero"/><path fill="#aa8108" d="M 796.621094 976.835938 L 276.398438 456.613281 L 277.613281 455.394531 L 799.054688 976.835938 Z M 796.621094 976.835938 " fill-opacity="1" fill-rule="nonzero"/></svg>